<?xml version="1.0" encoding="UTF-8"?>
<svg id="Capa_1" xmlns="http://www.w3.org/2000/svg" viewBox="0 0 63.95 28.46">
  <defs>
    <style>
      .cls-1 {
        fill: lime;
      }
    </style>
  </defs>
  <path class="cls-1" d="M16.91,22.76L0,15.71v-3.59l16.91-7.07v4.65l-10.45,4.21,10.45,4.18v4.66Z"/>
  <path d="M19.53,0h12.34v5.7h-4.94v5.4h4.62v5.41h-4.62v6.26h5.43v5.7h-12.83V0Z"/>
  <path d="M41.38,5.13l-.28,3.07c1.03-2.2,2.53-3.36,4.48-3.49v8.21c-1.3,0-2.26.18-2.87.53s-.98.84-1.12,1.47-.21,2.07-.21,4.33v9.21h-7.1V5.13h7.1Z"/>
  <path class="cls-1" d="M47.04,5.06l16.91,7.03v3.6l-16.91,7.07v-4.65l10.44-4.21-10.44-4.19v-4.66Z"/>
</svg>