<?xml version="1.0" encoding="UTF-8"?>
<svg id="Capa_1" xmlns="http://www.w3.org/2000/svg" viewBox="0 0 109.42 19.77">
  <defs>
    <style>
      .cls-1 {
        fill: lime;
      }
    </style>
  </defs>
  <path class="cls-1" d="M11.27,15.57L0,10.88v-2.39L11.27,3.77v3.1l-6.96,2.81,6.96,2.79v3.11Z"/>
  <path d="M13.02.4h8.23v3.8h-3.29v3.6h3.08v3.61h-3.08v4.17h3.62v3.8h-8.55V.4Z"/>
  <path d="M27.59,3.82l-.19,2.04c.69-1.46,1.68-2.24,2.99-2.33v5.47c-.87,0-1.5.12-1.91.35s-.66.56-.75.98-.14,1.38-.14,2.89v6.14h-4.73V3.82h4.73Z"/>
  <path class="cls-1" d="M31.36,3.77l11.27,4.69v2.4l-11.27,4.71v-3.1l6.96-2.81-6.96-2.79v-3.11Z"/>
  <path class="cls-1" d="M52.91.4l2.82,18.97h-5.04l-.26-3.41h-1.76l-.3,3.41h-5.1L45.78.4h7.13ZM50.29,12.6c-.25-2.15-.5-4.81-.75-7.97-.5,3.63-.82,6.29-.95,7.97h1.7Z"/>
  <path d="M56.57.4h3.49c2.33,0,3.9.09,4.73.27s1.5.64,2.02,1.38.78,1.92.78,3.53c0,1.48-.18,2.47-.55,2.98s-1.09.81-2.17.91c.98.24,1.63.57,1.97.97s.54.78.63,1.12.12,1.28.12,2.81v5h-4.58v-6.3c0-1.02-.08-1.64-.24-1.89s-.58-.36-1.26-.36v8.55h-4.93V.4ZM61.5,3.64v4.22c.55,0,.94-.08,1.17-.23s.33-.65.33-1.48v-1.04c0-.6-.11-1-.32-1.18s-.61-.28-1.18-.28Z"/>
  <path d="M74.43.4v18.97h-4.93V.4h4.93Z"/>
  <path d="M86.86,6.14h-4.58v-1.41c0-.66-.06-1.07-.18-1.25s-.31-.27-.59-.27c-.3,0-.52.12-.67.36-.15.24-.23.61-.23,1.1,0,.63.09,1.11.26,1.43.16.32.63.71,1.39,1.16,2.2,1.3,3.58,2.37,4.15,3.21s.86,2.18.86,4.04c0,1.35-.16,2.35-.47,2.99s-.93,1.18-1.83,1.61-1.96.65-3.16.65c-1.32,0-2.45-.25-3.38-.75s-1.54-1.14-1.83-1.91-.43-1.87-.43-3.29v-1.24h4.58v2.31c0,.71.06,1.17.19,1.37s.36.3.69.3.57-.13.73-.39.24-.64.24-1.15c0-1.12-.15-1.85-.46-2.19-.31-.34-1.08-.92-2.31-1.72-1.23-.81-2.04-1.4-2.44-1.77s-.73-.88-.99-1.52-.39-1.48-.39-2.48c0-1.45.19-2.52.56-3.19s.97-1.2,1.8-1.58,1.83-.57,3-.57c1.28,0,2.37.21,3.28.62s1.5.94,1.79,1.56.44,1.7.44,3.21v.75Z"/>
  <path d="M88.82.4h4.97c1.34,0,2.38.11,3.1.32s1.27.52,1.63.91.61.88.74,1.45.19,1.44.19,2.63v1.65c0,1.21-.12,2.09-.38,2.65s-.71.98-1.38,1.28-1.54.45-2.62.45h-1.32v7.64h-4.93V.4ZM93.75,3.64v4.83c.14,0,.26.01.36.01.45,0,.77-.11.94-.33s.26-.69.26-1.39v-1.56c0-.65-.1-1.07-.3-1.27s-.62-.29-1.27-.29Z"/>
  <path d="M100.86.4h8.23v3.8h-3.29v3.6h3.08v3.61h-3.08v4.17h3.62v3.8h-8.55V.4Z"/>
</svg>