<svg id="Capa_1" data-name="Capa 1" xmlns="http://www.w3.org/2000/svg" viewBox="0 0 51.73 11.49"><title>Sin título-2</title><path d="M1,10.25V9.94a3.88,3.88,0,0,0,.57-.33,37.77,37.77,0,0,0,.12-3.85c0-1.33,0-2.21,0-2.64a.71.71,0,0,0-.13-.44,2.42,2.42,0,0,0-.87-.16V2c.93,0,1.65.05,2.19.05L6.08,2c.34,0,.65,0,.92,0l0,.07a14.07,14.07,0,0,0-.18,1.71H6.39a6.46,6.46,0,0,0-.06-.91.49.49,0,0,0-.27-.11,7.57,7.57,0,0,0-1.49-.11c-.33,0-.71,0-1.15,0,0,1.21-.08,2.17-.08,2.89.41,0,.81,0,1.17,0a5.45,5.45,0,0,0,1-.05.25.25,0,0,0,.14-.17,4.31,4.31,0,0,0,.08-.74h.51q0,1,0,1.29l0,1.32H5.71a3.46,3.46,0,0,0-.1-.89s-.08-.08-.16-.1a8.65,8.65,0,0,0-1.32-.06,7.27,7.27,0,0,0-.75,0c0,.2,0,.41,0,.63,0,1.11,0,2,.06,2.57H4.59a14.41,14.41,0,0,0,1.81-.1c.1-.36.19-.77.28-1.23h.49a17.72,17.72,0,0,0-.16,2c-.36,0-.7,0-1,0s-.64,0-1.27,0l-1.63,0C2.43,10.21,1.74,10.23,1,10.25Z" transform="translate(-0.67 -1.75)"/><path d="M7.67,10.25V9.77a2.88,2.88,0,0,0,.67-.07.25.25,0,0,0,.12-.11A2.17,2.17,0,0,0,8.53,9q0-.86,0-1.56c0-.91,0-1.44,0-1.61a.3.3,0,0,0-.1-.21,2.35,2.35,0,0,0-.75-.08V5.06a9,9,0,0,0,1.68-.28L10,4.55s.08,0,.08.11v.09c0,.24,0,.59,0,1.06.2-.2.42-.44.67-.73a1.59,1.59,0,0,1,.47-.43,1.14,1.14,0,0,1,.53-.1,1.06,1.06,0,0,1,.38.07C12,5,12,5.54,12,6.21l-.26.1a.89.89,0,0,0-.3-.33A.87.87,0,0,0,11,5.89a1,1,0,0,0-.6.19.76.76,0,0,0-.32.41A6.69,6.69,0,0,0,10,7.69c0,1,0,1.57,0,1.74a.28.28,0,0,0,.11.22,2.55,2.55,0,0,0,.89.12v.48h-.66c-.42,0-.78,0-1.08,0s-.63,0-1,0Z" transform="translate(-0.67 -1.75)"/><path d="M12.35,8l-.08-.11a5.65,5.65,0,0,0,.39-1.22l1.77,0,1.64,0,.09.11A9.15,9.15,0,0,0,15.75,8L14,8Z" transform="translate(-0.67 -1.75)"/><path d="M16.58,9.72a2,2,0,0,0,.68-.11,1.35,1.35,0,0,0,.27-.45c.24-.5.55-1.21.92-2.11L20.52,2h.86L24,8.26a7.74,7.74,0,0,0,.64,1.31,1.62,1.62,0,0,0,.74.15v.53c-.64,0-1.24,0-1.81,0s-1.31,0-1.92,0V9.72a3.85,3.85,0,0,0,.8-.08.18.18,0,0,0,.11-.17,3.79,3.79,0,0,0-.25-.75l-.38-1c-.49,0-1,0-1.63,0s-1,0-1.42,0l-.25.65c-.07.18-.16.45-.26.8a.64.64,0,0,0,0,.22.2.2,0,0,0,.12.19,4.6,4.6,0,0,0,.82.11v.53c-.38,0-.86,0-1.43,0s-1,0-1.29,0ZM20.42,4l-1.24,3c.36,0,.76,0,1.19,0s.89,0,1.31,0Z" transform="translate(-0.67 -1.75)"/><path d="M25.67,10.25V9.77a2.88,2.88,0,0,0,.67-.07.25.25,0,0,0,.12-.11A2.17,2.17,0,0,0,26.53,9q0-.86,0-1.56c0-.91,0-1.44,0-1.61a.3.3,0,0,0-.1-.21,2.35,2.35,0,0,0-.75-.08V5.06a9,9,0,0,0,1.68-.28L28,4.55c.05,0,.08,0,.08.11v.09c0,.24,0,.59,0,1.06.2-.2.42-.44.67-.73a1.59,1.59,0,0,1,.47-.43,1.14,1.14,0,0,1,.53-.1,1.06,1.06,0,0,1,.38.07C30,5,30,5.54,30,6.21l-.26.1a.89.89,0,0,0-.3-.33A.87.87,0,0,0,29,5.89a1,1,0,0,0-.6.19.76.76,0,0,0-.32.41A6.69,6.69,0,0,0,28,7.69c0,1,0,1.57,0,1.74a.28.28,0,0,0,.11.22,2.55,2.55,0,0,0,.89.12v.48h-.66c-.42,0-.78,0-1.08,0s-.63,0-1,0Z" transform="translate(-0.67 -1.75)"/><path d="M30.58,10.25V9.77a2.58,2.58,0,0,0,.77-.08.46.46,0,0,0,.13-.33c0-.24,0-.79,0-1.63,0-.36,0-.7,0-1l0-.68a.81.81,0,0,0-.07-.42c-.05-.06-.18-.09-.4-.1h-.44V5.06a7.39,7.39,0,0,0,2.33-.51l.14.12C33,5.42,33,6.51,33,7.93a14.07,14.07,0,0,0,0,1.5.38.38,0,0,0,.1.24,3.34,3.34,0,0,0,.77.1v.48l-1.63,0Zm1.63-8.5a.87.87,0,0,1,.64.27.88.88,0,0,1,.27.65.87.87,0,0,1-.27.64.93.93,0,0,1-1.29,0,.86.86,0,0,1-.26-.64A.87.87,0,0,1,31.56,2,.89.89,0,0,1,32.21,1.75Z" transform="translate(-0.67 -1.75)"/><path d="M35.27,8.35a4.38,4.38,0,0,0,.07.85,1.1,1.1,0,0,0,.49.42,1.77,1.77,0,0,0,.82.18,1.33,1.33,0,0,0,.85-.23.79.79,0,0,0,.29-.63.68.68,0,0,0-.21-.53,2,2,0,0,0-.88-.34,6.06,6.06,0,0,1-1.32-.39,1.18,1.18,0,0,1-.49-.5,1.61,1.61,0,0,1-.18-.78,1.74,1.74,0,0,1,.27-1,1.78,1.78,0,0,1,.77-.65,3.15,3.15,0,0,1,1.34-.24,4.74,4.74,0,0,1,1.61.28,11,11,0,0,0-.11,1.49h-.46a3,3,0,0,0-.1-.75.72.72,0,0,0-.34-.29A1.72,1.72,0,0,0,37,5.13a1.24,1.24,0,0,0-.77.21.69.69,0,0,0-.27.56.57.57,0,0,0,.25.49,3.29,3.29,0,0,0,1.17.35,4.92,4.92,0,0,1,.88.22,1.4,1.4,0,0,1,.63.51,1.61,1.61,0,0,1,.21.86,1.72,1.72,0,0,1-.77,1.52,3.13,3.13,0,0,1-1.82.53,3.89,3.89,0,0,1-.78-.09,8.94,8.94,0,0,1-.93-.23l-.09-.1a13.6,13.6,0,0,0,.09-1.61Z" transform="translate(-0.67 -1.75)"/><path d="M39.84,5.5V5.05a9.21,9.21,0,0,0,1.71-.28l.62-.19c.06,0,.08,0,.08.14a2.14,2.14,0,0,1,0,.32v.53l1-.75a1.6,1.6,0,0,1,1-.24,2.16,2.16,0,0,1,1.59.61,2.27,2.27,0,0,1,.6,1.66,3.55,3.55,0,0,1-.15,1,2.8,2.8,0,0,1-.36.81,3.2,3.2,0,0,1-.72.69,13,13,0,0,1-1,.81,1.56,1.56,0,0,1-.8.2,2.41,2.41,0,0,1-.53-.07,2,2,0,0,1-.52-.19l0,1.78c0,.43.06.68.14.75a1.79,1.79,0,0,0,.86.11v.48l-1.58,0c-.86,0-1.46,0-1.82,0v-.48a2.35,2.35,0,0,0,.72-.07.2.2,0,0,0,.09-.11,7.45,7.45,0,0,0,.07-1.2c0-1,0-1.73,0-2.22V6.84a6,6,0,0,0-.07-1.17.23.23,0,0,0-.09-.12A3.06,3.06,0,0,0,39.84,5.5ZM42.22,9a1.8,1.8,0,0,0,.57.51,1.43,1.43,0,0,0,.68.17,1.15,1.15,0,0,0,1-.52,2.79,2.79,0,0,0,.39-1.67,2.11,2.11,0,0,0-.4-1.4,1.23,1.23,0,0,0-1-.48,1.54,1.54,0,0,0-.61.14,2.59,2.59,0,0,0-.61.44Z" transform="translate(-0.67 -1.75)"/><path d="M52.1,9.12l.17.17L52,9.85a3.3,3.3,0,0,1-.9.4,4.27,4.27,0,0,1-1,.13,2.69,2.69,0,0,1-2-.75,2.83,2.83,0,0,1-.74-2.08,3.79,3.79,0,0,1,.22-1.41,1.7,1.7,0,0,1,.58-.75A6.06,6.06,0,0,1,49,4.82a2.47,2.47,0,0,1,1.15-.27,2.36,2.36,0,0,1,1.59.54,2.15,2.15,0,0,1,.63,1.73c0,.1,0,.24,0,.44l-1,.18c-.29,0-.72,0-1.28,0H48.87A2.38,2.38,0,0,0,49.47,9a1.79,1.79,0,0,0,1.31.51,2.52,2.52,0,0,0,.67-.09A3.09,3.09,0,0,0,52.1,9.12ZM48.83,6.85c.35,0,.71.05,1.06.05s.63,0,1-.05V6.57a1.65,1.65,0,0,0-.27-1.05.86.86,0,0,0-.71-.34,1,1,0,0,0-.55.16,1,1,0,0,0-.34.44A4.48,4.48,0,0,0,48.83,6.85Z" transform="translate(-0.67 -1.75)"/></svg>